<svg xmlns="http://www.w3.org/2000/svg" version="1.1" xmlns:xlink="http://www.w3.org/1999/xlink" xmlns:svgjs="http://svgjs.dev/svgjs" width="1440" height="560" preserveAspectRatio="none" viewBox="0 0 1440 560"><g mask="url(&quot;#SvgjsMask1001&quot;)" fill="none"><rect width="1440" height="560" x="0" y="0" fill="rgba(255, 55, 102, 1)"></rect><path d="M0,375.638C82.482,393.288,173.744,425.983,247.726,385.469C322.047,344.77,350.626,252.253,374.03,170.814C395.134,97.378,381.054,22.311,373.956,-53.767C366.46,-134.112,388.445,-230.099,331.308,-287.08C273.9,-344.331,175.582,-310.449,96.912,-330.054C22.701,-348.547,-40.743,-403.068,-117.106,-398.825C-203.05,-394.049,-304.946,-377.11,-352.108,-305.103C-399.73,-232.393,-347.757,-136.607,-345.759,-49.713C-344.15,20.259,-370.851,92.42,-341.507,155.961C-312.205,219.41,-246.606,254.458,-187.828,292.267C-129.027,330.091,-68.368,361.008,0,375.638" fill="#f8003a"></path><path d="M1440 925.881C1507.033 915.527 1558.744 869.3 1619.835 839.828 1691.297 805.3530000000001 1793.524 808.591 1829.6019999999999 737.925 1865.449 667.712 1816.946 583.36 1788.266 509.927 1764.585 449.295 1719.6390000000001 403.74 1679.169 352.75800000000004 1636.633 299.175 1607.908 229.53300000000002 1544.77 203.187 1479.578 175.98399999999998 1406.065 194.10700000000003 1337.256 210.08499999999998 1264.923 226.882 1195.083 251.03699999999998 1137.388 297.786 1071.722 350.994 1006.328 412.69100000000003 985.975 494.721 964.864 579.807 981.554 673.421 1025.344 749.367 1067.401 822.307 1143.058 868.529 1220.527 901.5070000000001 1289.653 930.933 1365.752 937.35 1440 925.881" fill="#ff7595"></path></g><defs><mask id="SvgjsMask1001"><rect width="1440" height="560" fill="#ffffff"></rect></mask></defs></svg>